<svg width="43" height="43" viewBox="0 0 43 43" fill="none" xmlns="http://www.w3.org/2000/svg">
<path fill-rule="evenodd" clip-rule="evenodd" d="M17.1485 21.9219H18.6196V30.8202C18.6196 31.0157 18.7842 31.1803 18.9796 31.1803H22.827C23.0225 31.1803 23.187 31.0157 23.187 30.8202V21.9219H25.4193C25.6045 21.9219 25.7588 21.7779 25.7794 21.603L26.1189 18.3317C26.1394 18.1363 25.9954 17.9614 25.8 17.9408C25.7897 17.9408 25.7794 17.9408 25.7588 17.9408H23.187V16.3772C23.187 16.2743 23.1973 16.1714 23.2385 16.0788C23.2796 15.9863 23.3516 15.9143 23.4545 15.8834C23.5162 15.8628 23.578 15.8525 23.6397 15.8525H25.7074C25.9028 15.8525 26.0674 15.6879 26.0674 15.4925V12.3241C26.0674 12.1286 25.9028 11.964 25.7074 11.964L22.8579 11.9537C22.1378 11.9332 21.4177 12.0875 20.7593 12.3858C20.3581 12.571 19.9981 12.8384 19.6997 13.1573C19.2985 13.5894 19.0105 14.114 18.8356 14.6798C18.6813 15.1736 18.6093 15.6776 18.6093 16.192V17.9511H17.1382C16.9428 17.9511 16.7782 18.1157 16.7782 18.3111V21.5824C16.7885 21.7573 16.9428 21.9219 17.1485 21.9219Z" fill="#716565"/>
<path fill-rule="evenodd" clip-rule="evenodd" d="M21.4485 42.9795C33.2993 42.9898 42.9074 33.4022 42.928 21.5515C42.9485 9.70076 33.3404 0.0926286 21.5 0.0720545C9.65954 0.0514803 0.0308298 9.65962 0.0205427 21.5C0.0102556 27.1991 2.27341 32.6615 6.30595 36.6941C10.3179 40.7266 15.7701 42.9795 21.4485 42.9795ZM21.4485 2.27349C32.1059 2.2632 40.7574 10.9044 40.7677 21.5618C40.778 32.2192 32.1368 40.8706 21.4794 40.8809C10.822 40.8809 2.17054 32.25 2.16026 21.5926C2.16026 16.4697 4.18681 11.5524 7.81815 7.9211C11.4289 4.30005 16.3359 2.2632 21.4485 2.27349Z" fill="#716565"/>
</svg>
