<svg width="43" height="43" viewBox="0 0 43 43" fill="none" xmlns="http://www.w3.org/2000/svg">
<path fill-rule="evenodd" clip-rule="evenodd" d="M21.4485 42.9795C33.2993 42.9898 42.9074 33.4022 42.928 21.5515C42.9485 9.70076 33.3404 0.0926286 21.5 0.0720545C9.65954 0.0514803 0.0308298 9.65962 0.0205427 21.5C0.0102556 27.1991 2.27341 32.6615 6.30595 36.6941C10.3179 40.7266 15.7701 42.9795 21.4485 42.9795ZM21.4485 2.27349C32.1059 2.2632 40.7574 10.9044 40.7677 21.5618C40.778 32.2192 32.1368 40.8706 21.4794 40.8809C10.822 40.8809 2.17054 32.25 2.16026 21.5926C2.16026 16.4697 4.18681 11.5524 7.81815 7.9211C11.4289 4.30005 16.3359 2.2632 21.4485 2.27349Z" fill="#716565"/>
<path fill-rule="evenodd" clip-rule="evenodd" d="M11.5935 27.9296C13.4657 29.1331 15.6466 29.7709 17.8686 29.7709C19.5866 29.7812 21.2942 29.4212 22.8579 28.7011C24.9256 27.7341 26.6538 26.1499 27.8162 24.1748C28.9067 22.3437 29.493 20.2554 29.5136 18.1157C29.5136 18.0025 29.5136 17.8894 29.5136 17.7762C30.2543 17.2104 30.9023 16.5315 31.427 15.7497C31.5401 15.5851 31.4887 15.3587 31.3241 15.2456C31.2213 15.1736 31.0875 15.1633 30.9744 15.2147C30.6966 15.3382 30.4189 15.441 30.1308 15.5233C30.4909 15.1016 30.7583 14.6078 30.9229 14.0831C30.9846 13.898 30.8818 13.6922 30.6863 13.6305C30.5835 13.5997 30.4806 13.6099 30.388 13.6614C29.6988 14.0729 28.9478 14.3609 28.166 14.5358C26.448 12.8693 23.7117 12.9207 22.0452 14.6386C21.2634 15.441 20.8313 16.5212 20.8313 17.6528C20.8313 17.8276 20.8416 17.9922 20.8622 18.1671C17.9406 17.8997 15.2557 16.4697 13.404 14.186C13.2806 14.0317 13.0543 14.0111 12.9 14.1346C12.8691 14.1654 12.8382 14.1963 12.8177 14.2375C11.9227 15.7805 12.0564 17.7145 13.1777 19.1032C13.0234 19.0415 12.8794 18.9798 12.7354 18.8975C12.5605 18.8049 12.3445 18.8666 12.2416 19.0415C12.2107 19.093 12.2004 19.1444 12.2004 19.2061C12.2004 19.237 12.2004 19.2473 12.2004 19.2678C12.2004 20.7286 12.9411 22.0968 14.1756 22.8992C14.1241 22.8889 14.0727 22.8786 14.0212 22.8683C13.8258 22.8272 13.6406 22.9609 13.5995 23.1564C13.5892 23.2181 13.5892 23.2798 13.6098 23.3312C14.0624 24.7611 15.2351 25.8516 16.6856 26.2116C15.2248 27.0963 13.5172 27.4666 11.8301 27.2609C11.6346 27.2403 11.4495 27.3741 11.4289 27.5798C11.4186 27.7135 11.4803 27.8473 11.5935 27.9296Z" fill="#716565"/>
</svg>
