<svg width="43" height="43" viewBox="0 0 43 43" fill="none" xmlns="http://www.w3.org/2000/svg">
<path fill-rule="evenodd" clip-rule="evenodd" d="M14.8854 28.4645H28.0117C29.7605 28.4645 31.1698 27.0552 31.1698 25.3064V17.7968C31.1698 16.0583 29.7605 14.6387 28.0117 14.6387H14.8854C13.1469 14.6387 11.7272 16.048 11.7272 17.7968V25.3064C11.7272 27.0552 13.1366 28.4645 14.8854 28.4645ZM19.9363 24.0514V18.342L24.2672 21.1915L19.9363 24.0514Z" fill="#716565"/>
<path fill-rule="evenodd" clip-rule="evenodd" d="M21.4485 42.9795C33.2993 42.9898 42.9074 33.4022 42.928 21.5515C42.9485 9.70076 33.3404 0.0926286 21.5 0.0720545C9.65954 0.0514803 0.0308298 9.65962 0.0205427 21.5C0.0102556 27.1991 2.27341 32.6615 6.30595 36.6941C10.3179 40.7266 15.7701 42.9795 21.4485 42.9795ZM21.4485 2.27349C32.1059 2.2632 40.7574 10.9044 40.7677 21.5618C40.778 32.2192 32.1368 40.8706 21.4794 40.8809C10.822 40.8809 2.17054 32.25 2.16026 21.5926C2.16026 16.4697 4.18681 11.5524 7.81815 7.9211C11.4289 4.30004 16.3359 2.2632 21.4485 2.27349Z" fill="#716565"/>
</svg>
